<svg xmlns="http://www.w3.org/2000/svg" xml:space="preserve" id="svg4" width="758.5" height="420.7" version="1.1" viewBox="0 0 569 316">
  <path id="path2" fill="#868f8f" fill-opacity=".9" fill-rule="evenodd" d="M120 21c-1-2-2-4-1-7 0-4 0-9 3-12s8-1 8 2c0 7 1 11-4 16m-14 3c-5-1-5 0-6-3-2-2-3-4-3-7l1-9c1-2 3-5 6-4s3 4 4 6c1 5 1 10-2 14v3zm335-1h-4l-2-3c-3-4-4-10-3-15 1-2 3-3 6-4l4 5c2 3 3 7 2 10 0 3-1 5-3 7h10l-1-4-2-6c-1-3 0-6 1-9 1-1 3-3 5-3s4 2 4 4c1 4 2 10 0 14l-4 4h-13zM140 4c3-1 6 2 6 5 1 3 0 6-1 8-1 4-4 6-7 8l-4-1c-2-4-2-8 0-11 1-3 2-7 6-9zm285 1c3-2 6 0 7 2l3 7v10l-4 2c-2-2-5-3-6-6s-3-6-2-10c0-2 0-5 2-5zm47 1c2-2 5-2 6 0l3 6v8l-5 7-6-4v-7c0-4-1-8 2-10zM88 8c1-2 5-5 7-3 3 2 4 6 4 9 0 7-1 10-6 13-2-2-4-3-4-5-2-4-2-9-1-14zm60 10c8-11 14-6 14-2-1 2 0 4-2 5l-7 10-6-1c0-4-1-8 1-12zm261-6c3-1 5 0 7 1l5 7 1 8c0 2-2 3-4 3-4-1-7-5-9-8s-2-6-2-8 1-3 2-3zM164 25c2-2 5-5 8-4 3 0 3 3 3 5 0 3-1 5-3 7-7 11-21 6-8-8zm230-2c2-3 5-3 7-1 5 3 9 8 9 14l-4 4-6-3c-4-3-9-9-6-14zm-178-1h136v2h2v1l1-1v26l-1 10-1 1h-14v-1l-6 1v-1h-4v-1h-90l1 1h-8l1 1-4-1v1h-11l-3-1V28l1-6zm3 6v28h8v1h112l-1-1h11V27l-44 1h-86zM31 23c6 1 17 4 30 5h25L74 39l-1-4h-9c-6 0-33-4-33-12zm477 12h-12l-2 4-11-11c8 1 28 1 37-1 37-9 8 9-12 8zm-67-11h20c4 1 8 2 10 5l-8 8-9-6c-4-1-8-2-11 1-4 2-7 6-8 10s0 8 2 12l8 7v2c-2 6-10 12-9 23 0 6 6 5 9 9l-8 7c1 4 6 5 8 8l-6 6 7 6c1 2 4 3 4 6l-3 3 2 3 9 2 2 7h10l-1 10c-2 5-1 11-1 17v2h1v4h1v1c0 1 0 2 2 2l-1 1h1v1h1l-1 1h1v1h1v2h1v1h1v2l1-1v2h1l3 3v1h1-1 1v1h1l2 3 2 2 1 2v1h1v1c1 3 2 2 1 3h1v3h1l1 6v10l-1 7c-2 9-6 17-9 25-7-4-14-6-21-8l-27-3 2-7c2-6 2-12 1-17l-1-7-2-4-2-3v-1h-1v-1h-1v-1l-1-1-1-1h-1v-1h-1v-2l-1 1v-2l-1 1v-1h-1v-1l-2-1h-1v-1h-1v-1h-1v-1a807 807 0 0 0-1 0l-2-1-2-1h1-1v-1h-2v-1h-2v-1h-2v-1h-2v-1l-1 1v-2h-2v-1l-1 1v-1h-1v-1h-2v-1h-2v-1h-1l-2-1v-1l-1 1v-1h-1v-1a667 667 0 0 0-4-2l1-1h-1l-4-4-3-3v-1h-1v-1h-1v-3h-1v-1h-1v-2h-1v-2h-1l-1-4-2-8h-1l-1-8c0-11 0-20 2-30l2-6 2-6v-1l1-5 4-10 4-7 6-12 6-8 6-8 10-8c6-5 13-9 20-11 3-1 5-3 8-3zm-339 1 15-1a55 55 0 0 1 35 12c6 3 9 7 14 11l8 11c4 3 5 8 8 12s4 9 6 13l1 2h1l1 6 1 4h1v4h1v2h1v4c2 13 3 6 3 23 1 7 0 14-1 21l-4 11v1h-1v1h-1l1 1h-2v3l-1-1v1l-1 2v1h-1v1h-2l1 1h-2l1 2h-2v1-1 1h-1v1h-1v1h-1v1h-1 1-1v1h-1l1 1-2-1 1 1h-1v1l-1-1v1h-1v1-1 1h-1v1h-2v1h-2 1-1v1h-2v1h-1v1l-1-1v1h-1v1l-2-1 1 1h-1v1l-1-1v1h-1v1l-1-1v1h-1v1h-2v1h-2v1h-2v1h-1v1l-1-1v2h-2v1h-2v1h-1v1h-1v1h-1v1l-1-1v1h-1 1l-3 3h-1v1h-1v1h-1v1l-1 1-1 2h-1l1 1h-1v1h-1v2l-1-1v3h-1v3h-1v13l3 15-14 1c-7 1-20 3-26 7l-4 1-2 1c-2 1-5-7-6-9l-4-14-1-3v-20h1v-3h1v-1l1-2h1l-1-1h1v-1h1v-1l1-2v-1h1v-1h1a1821 1821 0 0 1 2-2v-2l1 1 1-2h1v-2h1v-1h1l2-2 1-3h1v-1l4-9 1-4v-16l-2-10 11-1 2-7c4-1 12-2 11-5-1-1-3-2-3-4s10-10 10-11v-1h-1l-4-5c-1-1 7-6 7-7v-2l-2-1h1l-4-2-1-2v-2c3-3 3-2 5-3s2-3 3-5l-1-7-5-10c-2-2-3-5-3-8 0-2 6-4 8-9 2-3 3-6 2-9-2-5-5-10-10-12-2-2-6-1-8-1l-10 7-8-8 4-4zm119 6 6-1h120v23l-1-1v2H222l-1-23zm251 3 6-3 2 1 19 16c2 2 2 4 2 6 0 5-3 9-6 12l-10 16-8 11c-1 2-3 2-5 2-2-1-5-3-5-6 0-2 0-5 2-6l9-8-1 1v-2l-1 1h-3 1l-4 2c-2 0-4-2-5-3-1-2-3-14-2-16 0-2 12-13 13-14l9 4v-4c-3-3-5-5-9-6-6 5-10 11-15 17-2 2-5 4-8 4-5-1-11-4-12-10-1-4 0-9 3-12 3-2 6-1 9-1l9 6 10-8zm9 24v3h7c2-1 4-1 4-3l-4-5-7 5zM83 36l6-5c3-1 4 1 6 2l12 9 7-5c2-2 5-2 7-1 4 1 7 5 7 9 1 5-6 13-11 14-3 1-6-1-8-3l-9-11c-2-2-4-5-7-6h-3c-3 1-5 4-7 6v3c3-1 6-4 10-4l9 10c2 2 5 5 4 8l-2 10c0 2-2 4-4 5l-4-2h-4v-1h-1l1 1h-2l1 1c1 3 13 7 10 14l-4 5-4-1c-4-3-7-7-9-12L74 66l-5-5-1-10c0-2 2-3 3-4l12-11zm-6 23c3 2 7 3 11 3v-5l-8-4c-1 2-3 3-3 6zm101-25c6-3 9 1 8 4l-3 6c-4 4-6 6-11 6-4-2-5-4-2-10 2-3 5-5 8-6zm204 4c-1-3 2-6 5-5 4 0 6 2 9 4 2 2 4 6 4 9 0 2-3 4-4 4l-5-2c-4-2-7-5-9-10zM183 49c3-3 7-3 10-3 7 1 2 9-1 11-4 3-8 5-13 3-2-1-3-2-2-4 1-3 4-5 6-7zm191-2c4-2 9 0 12 2 2 2 6 5 6 8-1 2-3 4-5 4l-7-1-5-4-3-4c-1-2 0-4 2-5zM201 69c-9 7-21 5-14-5l5-3c12-7 17 2 9 8zm164-9c3-2 6-2 9 0 4 2 6 2 8 6 2 3 2 4 0 6l-1 1-3 1-3-1h1-3v-1 1l-2-1v-1h-2v-1l-3-2v-1h-1v-1l-1-3v-3l1 1v-1zM55 69l13-4 2 2c-4 3-10 5-13 9-3 3-5 6-6 10-2-1-4-2-4-4l1-11 7-2zm445-4 14 4 7 2v12l-4 3c-1-3-1-6-3-8-6-6-15-9-15-11l1-2zm-389 0c3 0 7 2 9 5 3 4 7 8 7 13v2l-8 5-2 2h2-1v4l1-1v4h1v1l2 5c-2 1-8 3-8 5l6 8h-11c0 5 2 9 3 13l-11-2-1 9 1 3-1-2-3-1c-2-1-3-3-5-3l-6-1-6 3c-2 0-5 1-7-1-3-2-4-6-4-9l-1-6c-2-2-5-5-5-8h1v-1h1l-1-1h2l-1-1h2l-1-1c1 1 2 0 2-1l1 1v-1h1v-1l1 1-1-1h1v-1l11 1v1h-2l1 1h-1v1h-1a19079 19079 0 0 0 2 1l-5 1-4 3c0 3 2 5 5 6 3 0 6 0 9-2l5-5v-6c-2-3-6-4-9-5H71c-4 1-7 4-9 6h-1c-4-3-6-6-8-10v-6h1v1h5l-1 1h4v1h3l-1 1h18v1h-3l1 1h-4l-3 1h17c3 1 6 3 8 6 1 3 1 6-1 8-2 5-7 7-10 11l2 4 10-12c4-4 5-9 7-13l3-11 2-28zm341 1 6-1v16c1 10 3 20 7 29 1 4 4 7 6 10l8 8h2v-1h1v-2l-10-9c-2-3-3-7-1-11l6-5h9l10-1h-8l-6-2h22l9-3 3-1v5l-9 12-2-2v-1h-1l-3-2c-4-3-9-3-14-2-4 0-8 2-10 6 0 3 1 7 3 9 2 1 4 3 7 3s7 0 8-3l1-4v-1h-2v-1h-3v-1h-1v-1l-2 1 1-1-2 1 2-2-2 1 1-1h-1v-1l-1 1v-2l11-1 7 5 1 1c0 5-4 8-5 12h-1v8l-2 3c-3 2-7 3-10 1h-1c-3-2-6-2-9-1l-5 2-4 2-1-10-10 1 3-12-11-1 5-7-2-3c-2 1-4 0-5-2l2-7 2-6-2-2c-3-1-6-3-8-6-1-3 2-6 3-8l8-10zm-214 0h93v66l-1-1v22h1v5h-92l-1-5V66zm65 6 10 1h9l-2-1h-17zm-55 1h-1l1 1h-2v2h-1v71h1v3-2 2c2-2 2 0 1 2h71v-1h-3v-1l-24 1 10-1a3910 3910 0 0 0 22-1V74l-16-1h-35l-6-1v1-1h-2v2-2h-5v1h-1l-1-1v2-1h-2l1-1h-3v3-3h-5zM66 75l4-2c4 3 8 7 10 11l7 10-10 1-9-1c-5-2-11-4-15-7 4-5 8-9 13-12zm423 8c2-4 6-7 9-10 7 3 13 8 17 14l-13 7-4 1-13 1c-2 0-3-2-3-3l7-10zm-287-8 8 1v1h1v2l1 1-1 2-1 1v1l-1 1h-1v1h-2l-1 1h-1l-1 1v1l-1-1c-2 2-6 1-9 0v-1h-1v-2h-1v-2l3-4 5-3 3-1zm156 1c5-2 10-1 14 1 5 3 5 5 5 9l-1 1v1l-2 1h-1l-7-1h-1v-1l-1 1v-1h-1v-1h-2v-1h-1l-1-2-1 1-1-5 1-2zm-108 2 2-1v1h56l10-1v66h-1v4h-67V78zm33 7-3 7h-1l-4-5h-3l-1 1 2 9-9-4v1h-1c-1 4 3 6 5 9l-10 1c0 1-1 3 1 4l6 3c-2 4-5 3-7 4v4l9 1-4 6v3c3 1 6-2 10-2l-2 9c1 1 3 2 4 0l5-6 3 9 2 1 3-9 1 1 2 1v1h1v2h1l4 1-2-10 10 4v-4l-4-6 10-1v-2h-1v-2h-1v-1h-1l-3-1-2-2 8-4v-2h-1l1-1h-1v-1l-1 1v-1c-3 0-6 1-8-1l5-7c0-1 0-2-2-2l-8 3 1-10-3 1-5 5-1-1-3-8-2 1zm72 8c4-2 9-1 12 0l3 2 1 2v3l-1 1v1l-1 1-2 1-4-1h-5v-1h-1v-1l-1 1v-1l-2-2v-1h-1v-3l2-2zm-152 0 8-1-1 1h4l1 7c-3 0-2 0-2 1h-2l-2 1-1 1h-9c1-1 1 0 0 0l-1-3-1 1v-5l1 1 3-3h1v-1h2zm79 6c2-1 5-1 7 1 4 2 8 6 8 10 1 3 1 6-1 8-3 4-7 8-12 8-4-1-8-3-11-7-2-2-2-6-2-10 1-4 6-9 11-10zm0 6-5 4v5c1 4 9 8 13 2 2-1 2-4 1-6-1-4-5-6-9-5zm-79 3h2l3-1 5 1h2l1 1c2 0 1 0 1 1l1 1h1l-1 3-2 1v1h-1l-2 1h-11l-1-1-1-2 2-5 1-1zm151-1h10v1h1v1l1-1-1 1h2c0 2 0 1 1 1 1 2 1 6-2 7l-11 1v-1h-1v-1l-1 1v-1h-1v-1l-1-1v-1h-1v-2h1v-2h1v-1l1 1v-1h1zm4 16 3-1v1h2l4 2v3l-3 3-5 1v-1h-1v-1l-1 1v-1l-2-1h-1v-4l4-2zm-143 2c1 1 0 4-2 5-5 2-5 2-10 0-2-1-3-2-2-4 0-2 2-2 4-3 2 0 9 0 10 2zm-16 37h18v1h16v-1l2-1v2h97v-3l1 3h37v3l1-1v3h1a5703 5703 0 0 0 1 2h-1l2 3v1l1-1-1 1h1v1h1v1h1v2h1v1-1 1h1v2h1v1h2-1 1v1h1v1h2v1h1v1h1v1l1-1v1h1v1l1-1v1h1v1-1 1h1v1h2v1h2l-1 1 2-1v1h1v1l1-1v1h1v1l1-1v1h1v1l1-1v1h2l-1 1 1-1v1h2v1h2v1h2v1h1v1l1-1v1h1v1l1-1v1h1v1l1-1v1h1l-1 1h2v1h1v1h2v1h1l4 5h1v2h1v1h1l-1 1h1v2h1v1l1 5v8c-1 5-1 10-4 14l-14-1c-5-1-10-7-20-10-5-1-10-2-16-1-8 2-16 6-21 12l-3 4-2 4c-2 5-2 8-2 13s1 8 4 12c3 6 8 10 14 14 3 2 6 6 10 5l33 1h140l14-1h4v18H366l-4-1-14-25-3-8c-4-13-5-31 2-43 6-8 14-13 24-14 9-2 18 0 27 3l5 2-1-1-5-4c-9-4-16-6-27-6a37 37 0 0 0-33 32l-1 8v5a96 96 0 0 0 17 46l3 7-130-1h-14l3-5c9-12 17-31 17-46 0-13 0-19-6-30l-5-6h-1l-4-3c-11-8-25-9-38-4-6 3-8 3-13 8l2-1 14-4c9-2 19-1 27 3s13 10 16 18l2 5v5a71 71 0 0 1-11 46l-10 14H0v-18l21 1h155l14-1c5 0 6-2 10-4 6-5 10-8 14-14l4-10 1-8-1-6-1-3h-1v-2h-1v-1l-1-1v-1h-1l-1-2h-1v-1h-1l1-1h-1v-1l-1 1v-1l-2-2-5-3c-5-3-7-3-13-4-8-1-18 2-25 5l-9 6-15 1c-3-7-4-16-3-24l1-2v-1l1-2v-1l1-2 3-4 1-1v-1 1l1-1 4-3h-1 1v-1l2-1h1v-1l1 1v-2l1 1v-1h1v-1l2 1-1-1h2l-1-1h2l2-1h1v-1h2-1 3v-1h1v-1h2v-1h1v-1l1 1v-1h1v-1l1 1v-1h2v-1c1 0 2 0 2-2v2l1-2v1l1-1 1 1-1-2 1 1v-1h2l-2-1 2 1v-1h1l-1-1h2v-1l1 1-1-1h2v-1h1l-1-1h1v-1l1 1v-1h1v-1h1l-1-1 1 1v-2l1 1v-1h1v-2h1v-1h1v-2h1v-1 1-2h1v-2h1l1-4v-1l1-2zm-31 81 14-2c8 0 16 2 22 8 3 3 6 7 6 12 1 14-10 25-21 32H71l-15 1H14v-5l5-7 4-4 7-6c2-2 0-3 3-6 4-5 4-4 10-4 5-1 6-5 12-3 4 1 6 4 9 5l3 1c14 2 20-3 32-6l19-5 15-2 25-4 10-5zm4 11c-7 3-14 4-22 5l-18 2-24 3c-7 1-14 3-20 6-7 4-14-2-29 6l-9 7c-2-1-4-2-4-4v-3l8-7c1-2 0-3-2-4-3-1-6 3-8 5-2 4-3 5-7 5-3 1-4 2-6 5l-3 3v2h5l5-3c6-1 4 4 6 7l3 2 9-7c7-4 15-7 23-7l11-1c6-3 12-6 19-7l18-3c11-2 23-2 34-3 5 0 10-4 15-4 8-1 15 6 7 14-3 4-5 4-10 5h-8l-42 1-14 1c-6 2-13 2-19 3l1 3h26l55-1c7-1 14-3 19-7l7-7 1-7c0-2 0-5-2-6-3-4-7-5-11-6-5-1-9 0-14 2zm269-1a289 289 0 0 1 41 10c6 2 14 3 21 2 5-2 9-8 14-7l3 1 3 2c3 1 7 0 10 2l4 5 2 5 3 3c4 2 8 6 10 10 3 3 3 6 3 10l-45-3H381c-7-4-14-9-18-16l-4-9c-2-10 3-18 12-23a37 37 0 0 1 33 0c5 3 6 3 12 4l25 4zm-71 7a16 16 0 0 0 3 13l1 2 1 1h1v1l2 1 3 2c4 3 8 4 13 4l62 2h22v-3l-17-3-11-1-51-1c-4 0-8 0-12-3l-4-5-1-6c1-3 5-5 8-5 5 0 9 2 13 3 4 2 8 1 12 2l30 3 20 3 16 7 14 1 16 5 11 8 3-2c1-3 1-5 3-7l5 2 7 2v-3l-5-6c-2-2-6-1-9-4-2-3-5-8-10-8l-2 3 3 3c3 2 5 4 6 7l-4 5c-5-2-5-7-19-11l-16-1-5-1-12-5-16-2-26-4c-8-1-17-1-25-4-6-1-11-4-17-3-5 0-11 3-13 8z" clip-path="none"/>
  <style id="style1" type="text/css">
    .st0{fill:#d5d5d0}.st0,.st1,.st2,.st3,.st4{fill-rule:evenodd;clip-rule:evenodd}.st1{fill:#cccdcb}.st2{fill:#bdbfc0}.st3{fill:#d5d9d8}.st4{fill:#cdd1cd}.st10,.st11{fill-rule:evenodd;clip-rule:evenodd}.st5{fill:#9b9891}.st5,.st6,.st7,.st8,.st9{fill-rule:evenodd;clip-rule:evenodd}.st6{fill:#d3d2cb}.st7{fill:#bfbfbb}.st8{fill:#d5d5d1}.st9{fill:#cdccc6}.st10{fill:#b4b7b3}.st11{fill:#b3b3ab}.st12{fill:#d9dbda}.st12,.st13,.st14,.st15,.st16,.st17{fill-rule:evenodd;clip-rule:evenodd}.st13{fill:#c8c8c6}.st14{fill:#bbc4c5}.st15{fill:#cacac6}.st16{fill:#d3d3d0}.st17{fill:#a8a69f}.st18{fill:#b3b3ae}.st18,.st19,.st20,.st21,.st22,.st23{fill-rule:evenodd;clip-rule:evenodd}.st19{fill:#b5b5b1}.st20{fill:#babab7}.st21{fill:#b3b7b5}.st22{fill:#c1c1bf}.st23{fill:#b7b8b7}.st24{fill:#aeb1ad}.st24,.st25,.st26,.st27,.st28,.st29{fill-rule:evenodd;clip-rule:evenodd}.st25{fill:#b5b4ae}.st26{fill:#a19b93}.st27{fill:#c8c8c5}.st28{fill:#d2d1ca}.st29{fill:#babdb8}.st30{fill:#999995}.st30,.st31,.st32,.st33,.st34,.st35{fill-rule:evenodd;clip-rule:evenodd}.st31{fill:#bdbeb8}.st32{fill:#bfbfbd}.st33{fill:#8c8c87}.st34{fill:#d0d0ca}.st35{fill:#cdd3d1}.st36{fill:#adada7}.st36,.st37,.st38,.st39,.st40,.st41{fill-rule:evenodd;clip-rule:evenodd}.st37{fill:#d5d5d2}.st38{fill:#85827b}.st39{fill:#babbba}.st40{fill:#d4d8d5}.st41{fill:#bfc4bf}.st42{fill:#bec4c5}.st42,.st43,.st44,.st45,.st46,.st47{fill-rule:evenodd;clip-rule:evenodd}.st43{fill:#cbcdca}.st44{fill:#cdccc5}.st45{fill:#a8a8a5}.st46{fill:#adaeab}.st47{fill:#d7dad8}.st48{fill:#c1c4bb}.st48,.st49,.st50,.st51,.st52,.st53{fill-rule:evenodd;clip-rule:evenodd}.st49{fill:#b8bfc1}.st50{fill:#a5a69f}.st51{fill:#90918e}.st52{fill:#a8aaa4}.st53{fill:#b4babb}.st54{fill:#93958d}.st54,.st55,.st56,.st57,.st58,.st59{fill-rule:evenodd;clip-rule:evenodd}.st55{fill:#bdbdb5}.st56{fill:#97958b}.st57{fill:#c6c4bd}.st58{fill:#d7d7d3}.st59{fill:#c5c5bf}.st60{fill:#b2b2a8}.st60,.st61,.st62,.st63,.st64,.st65{fill-rule:evenodd;clip-rule:evenodd}.st61{fill:#bfbfb7}.st62{fill:#cccbc4}.st63{fill:#c4c4bd}.st64{fill:#c5c8c7}.st65{fill:#a5a6a2}.st66{fill:#808079}.st66,.st67,.st68,.st69,.st70,.st71{fill-rule:evenodd;clip-rule:evenodd}.st67{fill:#a0a19d}.st68{fill:#cccdca}.st69{fill:#c4c4bf}.st70{fill:#95958e}.st71{fill:#c1c0b7}.st72{fill:#bebebd}.st72,.st73,.st74,.st75,.st76,.st77{fill-rule:evenodd;clip-rule:evenodd}.st73{fill:#adaea4}.st74{fill:#a2a5a5}.st75{fill:#b4b7b5}.st76{fill:#b2ada5}.st77{fill:#b4b3ad}.st78{fill:#c8c6be}.st78,.st79,.st80,.st81,.st82,.st83{fill-rule:evenodd;clip-rule:evenodd}.st79{fill:#b8b7ae}.st80{fill:#b1ada7}.st81{fill:#c0c7c8}.st82{fill:#a0a298}.st83{fill:#a19f97}.st84{fill:#9d9d93}.st84,.st85,.st86,.st87,.st88,.st89{fill-rule:evenodd;clip-rule:evenodd}.st85{fill:#9fa197}.st86{fill:#bdbdb8}.st87{fill:#a6a59b}.st88{fill:#a0a19b}.st89{fill:#bfbfb8}.st90{fill:#9e9e9b}.st90,.st91,.st92,.st93,.st94,.st95{fill-rule:evenodd;clip-rule:evenodd}.st91{fill:#b2b2ac}.st92{fill:#d0cdc5}.st93{fill:#d0ccc5}.st94{fill:#d9d9d5}.st95{fill:#cbc8bd}.st100,.st101{fill-rule:evenodd;clip-rule:evenodd}.st96{fill:#d5d7d5}.st96,.st97,.st98,.st99{fill-rule:evenodd;clip-rule:evenodd}.st97{fill:#c4c4be}.st98{fill:#ccd1d0}.st99{fill:#bfc0b8}.st100{fill:#d5d8d5}.st101{fill:#c4c4c0}.st102{fill:#d8d9d5}.st102,.st103,.st104,.st105,.st106,.st107{fill-rule:evenodd;clip-rule:evenodd}.st103{fill:#93938d}.st104{fill:#c0bfba}.st105{fill:#c8cacc}.st106{fill:#c1c4c4}.st107{fill:#b2b5b3}.st108{fill:#c6cbcd}.st108,.st109,.st110,.st111,.st112,.st113{fill-rule:evenodd;clip-rule:evenodd}.st109{fill:#adb1ac}.st110{fill:#b7babd}.st111{fill:#b5babe}.st112{fill:#b2b4b5}.st113{fill:#ccd3d8}.st114{fill:#ccd0cc}.st114,.st115,.st116,.st117,.st118,.st119{fill-rule:evenodd;clip-rule:evenodd}.st115{fill:#dee3e0}.st116{fill:#dfe4e6}.st117{fill:#dfe3e3}.st118{fill:#e3e6e8}.st119{fill:#c8c8c7}.st120{fill:#c8c8c8}.st120,.st121,.st122,.st123,.st124,.st125{fill-rule:evenodd;clip-rule:evenodd}.st121{fill:#d4d7d3}.st122{fill:#c4c7c6}.st123{fill:#d5dedf}.st124{fill:#d5d7d4}.st125{fill:#9f9f9b}.st126{fill:#c4cad0}.st126,.st127,.st128,.st129,.st130,.st131{fill-rule:evenodd;clip-rule:evenodd}.st127{fill:#a4a199}.st128{fill:#a5a29b}.st129{fill:#8d877d}.st130{fill:#978e85}.st131{fill:#82807b}.st132{fill:#aaa7a0}.st132,.st133,.st134,.st135,.st136,.st137{fill-rule:evenodd;clip-rule:evenodd}.st133{fill:#d1cdc7}.st134{fill:#d7d7d2}.st135{fill:#c8c8c1}.st136{fill:#dededa}.st137{fill:#dbdbd5}.st138{fill:#e3e0d7}.st138,.st139,.st140,.st141,.st142,.st143{fill-rule:evenodd;clip-rule:evenodd}.st139{fill:#dad8d1}.st140{fill:#cacac7}.st141{fill:#a5a49e}.st142{fill:#e4e4e0}.st143{fill:#bfc1bf}.st144{fill:#a0a4a0}.st144,.st145,.st146,.st147,.st148,.st149{fill-rule:evenodd;clip-rule:evenodd}.st145{fill:#a7a8a5}.st146{fill:#b8bdba}.st147{fill:#aaaba4}.st148{fill:#adadad}.st149{fill:#cac8bf}.st150{fill:#c0c0b7}.st150,.st151,.st152,.st153,.st154,.st155{fill-rule:evenodd;clip-rule:evenodd}.st151{fill:#b7b5ad}.st152{fill:#a5a59b}.st153{fill:#a0a097}.st154{fill:#c7c5be}.st155{fill:#919086}.st156{fill:#9d9e95}.st156,.st157,.st158,.st159,.st160,.st161{fill-rule:evenodd;clip-rule:evenodd}.st157{fill:#ababa4}.st158{fill:#e4e7e6}.st159{fill:#cbcdcb}.st160{fill:#ccd0cd}.st161{fill:#c8c8c4}.st162{fill:#cbcdcc}.st162,.st163,.st164,.st165,.st166,.st167{fill-rule:evenodd;clip-rule:evenodd}.st163{fill:#d1d1cc}.st164{fill:#d7d9d7}.st165{fill:#c4cacd}.st166{fill:#b7bebf}.st167{fill:#babebe}.st168{fill:#b2b7b4}.st168,.st169,.st170,.st171,.st172,.st173{fill-rule:evenodd;clip-rule:evenodd}.st169{fill:#c4bfb7}.st170{fill:#cac7be}.st171{fill:#bbb8b2}.st172{fill:#bebeb8}.st173{fill:#9b9b97}.st174{fill:#bebeba}.st174,.st175,.st176,.st177,.st178,.st179{fill-rule:evenodd;clip-rule:evenodd}.st175{fill:#acaca7}.st176{fill:#d9dada}.st177{fill:#a59e9b}.st178{fill:#b5b4ad}.st179{fill:#bbbbb8}.st180{fill:#a5a8a6}.st180,.st181,.st182,.st183,.st184,.st185{fill-rule:evenodd;clip-rule:evenodd}.st181{fill:#adb1a7}.st182{fill:#959793}.st183{fill:#ababa7}.st184{fill:#c5c5c5}.st185{fill:#6e6e6a}.st186{fill:#757875}.st186,.st187,.st188,.st189,.st190,.st191{fill-rule:evenodd;clip-rule:evenodd}.st187{fill:#93938e}.st188{fill:#6e6c61}.st189{fill:#95938b}.st190{fill:#d2d5d4}.st191{fill:#cbcdc8}.st192{fill:#bfc4c0}.st192,.st193,.st194,.st195,.st196,.st197{fill-rule:evenodd;clip-rule:evenodd}.st193{fill:#bfbeb7}.st194{fill:#abaaa2}.st195{fill:#babab2}.st196{fill:#6e6e6b}.st197{fill:#ccc8bb}.st198{fill:#c5bdae}.st198,.st199,.st200,.st201,.st202,.st203{fill-rule:evenodd;clip-rule:evenodd}.st199{fill:#ccc6ba}.st200{fill:#78736a}.st201{fill:#bfb7a7}.st202{fill:#b7bab3}.st203{fill:#cbcdd1}.st204{fill:#d2d5d8}.st204,.st205,.st206,.st207,.st208,.st209{fill-rule:evenodd;clip-rule:evenodd}.st205{fill:#c5c8c8}.st206{fill:#b8b7ad}.st207{fill:#b2ada6}.st208{fill:#bab8b2}.st209{fill:#babab3}.st210{fill:#b8bab8}.st210,.st211,.st212,.st213,.st214,.st215{fill-rule:evenodd;clip-rule:evenodd}.st211{fill:#c1c5c4}.st212{fill:#babfc1}.st213{fill:#b4b7b7}.st214{fill:#c7caca}.st215{fill:#bdbfbe}.st216{fill:#c5c7c7}.st216,.st217,.st218,.st219,.st220,.st221{fill-rule:evenodd;clip-rule:evenodd}.st217{fill:#a5a7a0}.st218{fill:#abaeae}.st219{fill:#d3d9da}.st220{fill:#e3eaf0}.st221{fill:#a5a6aa}.st222{fill:#c4c4bb}.st222,.st223,.st224,.st225,.st226,.st227{fill-rule:evenodd;clip-rule:evenodd}.st223{fill:#b5b7ae}.st224{fill:#b2b2ad}.st225{fill:#908d8b}.st226{fill:#bfbeba}.st227{fill:#aeaeab}.st228{fill:#aca89f}.st228,.st229,.st230,.st231,.st232,.st233{fill-rule:evenodd;clip-rule:evenodd}.st229{fill:#adada5}.st230{fill:#d0d0c8}.st231{fill:#d9d8d1}.st232{fill:#d1d0c7}.st233{fill:#d5d3cb}.st234{fill:#c4c1ba}.st234,.st235,.st236,.st237,.st238,.st239{fill-rule:evenodd;clip-rule:evenodd}.st235{fill:#c8c6ba}.st236{fill:#cbc7ba}.st237{fill:#c4bfb3}.st238{fill:#c8c7be}.st239{fill:#d2d1cb}.st240{fill:#dadbd9}.st240,.st241,.st242,.st243,.st244,.st245{fill-rule:evenodd;clip-rule:evenodd}.st241{fill:#b2b1ac}.st242{fill:#c0c4c1}.st243{fill:#c7cbcb}.st244{fill:#cdd2d4}.st245{fill:#babdba}.st246{fill:#bfc6c6}.st246,.st247,.st248,.st249,.st250,.st251{fill-rule:evenodd;clip-rule:evenodd}.st247{fill:#c7cbca}.st248{fill:#c6cac8}.st249{fill:#999997}.st250{fill:#abaead}.st251{fill:#919390}.st252{fill:#7d807d}.st252,.st253,.st254,.st255,.st256,.st257{fill-rule:evenodd;clip-rule:evenodd}.st253{fill:#aaaaa4}.st254{fill:#a0a09b}.st255{fill:#b8bab3}.st256{fill:#b7bab8}.st257{fill:#c5c5bb}.st258{fill:#bdb7ac}.st258,.st259,.st260,.st261,.st262,.st263{fill-rule:evenodd;clip-rule:evenodd}.st259{fill:#b3ada1}.st260{fill:#aaa79f}.st261{fill:#b2aea5}.st262{fill:#aeaba1}.st263{fill:#878a85}.st264{fill:#d1d2d1}.st264,.st265,.st266,.st267,.st268,.st269{fill-rule:evenodd;clip-rule:evenodd}.st265{fill:#cdcdc6}.st266{fill:#c6c8bf}.st267{fill:#c6c8c4}.st268{fill:#d5d9d7}.st269{fill:#cbd1d3}.st270{fill:#c8d1d5}.st270,.st271,.st272,.st273,.st274,.st275{fill-rule:evenodd;clip-rule:evenodd}.st271{fill:#d1d8de}.st272{fill:#c1c5c6}.st273{fill:#c7cdd1}.st274{fill:#cdd2d5}.st275{fill:#6c7174}.st276{fill:#c4bdae}.st276,.st277,.st278,.st279,.st280,.st281{fill-rule:evenodd;clip-rule:evenodd}.st277{fill:#b3aea5}.st278{fill:#b1ada6}.st279{fill:#aea89f}.st280{fill:#aba79f}.st281{fill:#736e66}.st282{fill:#c6c7bf}.st282,.st283,.st284,.st285,.st286,.st287{fill-rule:evenodd;clip-rule:evenodd}.st283{fill:#c1c1be}.st284{fill:#b1b2aa}.st285{fill:#c0c0be}.st286{fill:#a6a8a0}.st287{fill:#adaeaa}.st288{fill:#adaaa2}.st288,.st289,.st290,.st291,.st292,.st293{fill-rule:evenodd;clip-rule:evenodd}.st289{fill:#bfbbb2}.st290{fill:#c7c7c4}.st291{fill:#aeb2ac}.st292{fill:#b1aba1}.st293{fill:#989793}.st294{fill:#a6a29d}.st294,.st295,.st296,.st297,.st298,.st299{fill-rule:evenodd;clip-rule:evenodd}.st295{fill:#a1a09d}.st296{fill:#7e7d73}.st297{fill:#b8b4a7}.st298{fill:#c1c4ba}.st299{fill:#c7c8bf}.st300{fill:#bdbbb2}.st300,.st301,.st302,.st303,.st304,.st305{fill-rule:evenodd;clip-rule:evenodd}.st301{fill:#babbb2}.st302{fill:#a09e97}.st303{fill:#a5a49b}.st304{fill:#cac8c6}.st305{fill:#bebdb3}.st306{fill:#b7b4ad}.st306,.st307,.st308,.st309,.st310,.st311{fill-rule:evenodd;clip-rule:evenodd}.st307{fill:#b7b5ac}.st308{fill:#bfc0ba}.st309{fill:#c4c4b8}.st310{fill:#313331}.st311{fill:#848480}.st312{fill:#a8a79f}.st312,.st313,.st314,.st315,.st316,.st317{fill-rule:evenodd;clip-rule:evenodd}.st313{fill:#959288}.st314{fill:#d2d1c7}.st315{fill:#c8c4b7}.st316{fill:#d1d1c7}.st317{fill:#ccccc1}.st318{fill:#c0bbad}.st318,.st319,.st320,.st321,.st322,.st323{fill-rule:evenodd;clip-rule:evenodd}.st319{fill:#c4bfb2}.st320{fill:#d9d5cb}.st321{fill:#c8c8ba}.st322{fill:#d7d5cc}.st323{fill:#c8c7bd}.st324{fill:#d1cdc5}.st324,.st325,.st326,.st327,.st328,.st329{fill-rule:evenodd;clip-rule:evenodd}.st325{fill:#bab8ab}.st326{fill:#b8ad9e}.st327{fill:#ada69b}.st328{fill:#d0d2d1}.st329{fill:#e4e6e5}.st330{fill:#bfc4c6}.st330,.st331,.st332,.st333,.st334,.st335{fill-rule:evenodd;clip-rule:evenodd}.st331{fill:#dee1e1}.st332{fill:#b7baba}.st333{fill:#b2b2aa}.st334{fill:#aba79b}.st335{fill:#a6a59d}.st336{fill:#93938c}.st336,.st337,.st338,.st339,.st340,.st341{fill-rule:evenodd;clip-rule:evenodd}.st337{fill:#64615a}.st338{fill:#999993}.st339{fill:#adaead}.st340{fill:#9d9e9d}.st341{fill:#ccd5da}.st342{fill:#b4bbc0}.st342,.st343,.st344,.st345,.st346,.st347{fill-rule:evenodd;clip-rule:evenodd}.st343{fill:#adaca5}.st344{fill:#b8bab4}.st345{fill:#a5a5a1}.st346{fill:#d1d4d5}.st347{fill:#999d9f}.st348{fill:#b5b5ad}.st348,.st349,.st350,.st351,.st352,.st353{fill-rule:evenodd;clip-rule:evenodd}.st349{fill:#aeb2aa}.st350{fill:#aca79d}.st351{fill:#d5d5cc}.st352{fill:#b5b2a4}.st353{fill:#cacbc8}.st354{fill:#c1beb5}.st354,.st355,.st356,.st357,.st358,.st359{fill-rule:evenodd;clip-rule:evenodd}.st355{fill:#c5c4ba}.st356{fill:#bdbdb4}.st357{fill:#bfbfba}.st358{fill:#ccccc4}.st359{fill:#c7c8c0}.st360{fill:#c6c4bb}.st360,.st361,.st362,.st363,.st364,.st365{fill-rule:evenodd;clip-rule:evenodd}.st361{fill:#c0bfb4}.st362{fill:#a6a299}.st363{fill:#bbb7a8}.st364{fill:#b2ada4}.st365{fill:#b8b5aa}.st366{fill:#b8b1a5}.st366,.st367,.st368,.st369,.st370,.st371{fill-rule:evenodd;clip-rule:evenodd}.st367{fill:#858684}.st368{fill:#80807b}.st369{fill:#9b9d98}.st370{fill:#acadad}.st371{fill:#a0a099}.st372{fill:#aaa597}.st372,.st373,.st374,.st375,.st376,.st377{fill-rule:evenodd;clip-rule:evenodd}.st373{fill:#a59f93}.st374{fill:#dfe3df}.st375{fill:#b7b7ae}.st376{fill:#b5b5aa}.st377{fill:#d7d8d1}.st378{fill:#b3b2a8}.st378,.st379,.st380,.st381,.st382,.st383{fill-rule:evenodd;clip-rule:evenodd}.st379{fill:#adada2}.st380{fill:#d1d3d2}.st381{fill:#c8cbcb}.st382{fill:#bbbebb}.st383{fill:#b2b4ad}.st384{fill:#b4b5ad}.st384,.st385,.st386,.st387,.st388,.st389{fill-rule:evenodd;clip-rule:evenodd}.st385{fill:#dadfde}.st386{fill:#b1b3b2}.st387{fill:#bbbbb7}.st388{fill:#dadedb}.st389{fill:#cacdd1}.st390{fill:#b4ad9e}.st390,.st391,.st392,.st393,.st394,.st395{fill-rule:evenodd;clip-rule:evenodd}.st391{fill:#cccabf}.st392{fill:#c1bfb3}.st393{fill:#cbc6be}.st394{fill:#a5a093}.st395{fill:#b2ab9d}.st396{fill:#a69f92}.st396,.st397,.st398,.st399,.st400,.st401{fill-rule:evenodd;clip-rule:evenodd}.st397{fill:#a7a192}.st398{fill:#a7aaa1}.st399{fill:#98938d}.st400{fill:#9f9f97}.st401{fill:#929288}.st402{fill:#b1b2a7}.st402,.st403,.st404,.st405,.st406,.st407{fill-rule:evenodd;clip-rule:evenodd}.st403{fill:#959790}.st404{fill:#9d9787}.st405{fill:#c4c0b5}.st406{fill:#938e7e}.st407{fill:#979186}.st408{fill:#ccd0c7}.st408,.st409,.st410,.st411,.st412,.st413{fill-rule:evenodd;clip-rule:evenodd}.st409{fill:#a7a89d}.st410{fill:#d3d5d4}.st411{fill:#a4a297}.st412{fill:#c0bfb8}.st413{fill:#c8c6bd}.st414{fill:#bfbeb2}.st414,.st415,.st416,.st417,.st418,.st419{fill-rule:evenodd;clip-rule:evenodd}.st415{fill:#d1cdc4}.st416{fill:#bfbaac}.st417{fill:#b2ab98}.st418{fill:#c6c0b2}.st419{fill:#c4bba7}.st420{fill:#a49b8a}.st420,.st421,.st422,.st423,.st424,.st425{fill-rule:evenodd;clip-rule:evenodd}.st421{fill:#aaa191}.st422{fill:#c0c0bb}.st423{fill:#828686}.st424{fill:#8a8b86}.st425{fill:#888880}.st426{fill:#918c86}.st426,.st427,.st428,.st429,.st430,.st431{fill-rule:evenodd;clip-rule:evenodd}.st427{fill:#dae0e4}.st428{fill:#9b9288}.st429{fill:#b7b5b2}.st430{fill:#adadab}.st431{fill:#e0e1db}.st432{fill:#dadbd7}.st432,.st433,.st434,.st435,.st436,.st437{fill-rule:evenodd;clip-rule:evenodd}.st433{fill:#bbac98}.st434{fill:#a6a198}.st435{fill:#bab7ae}.st436{fill:#a49d93}.st437{fill:#e5e6e3}.st438{fill:#d1ccc4}.st438,.st439,.st440,.st441,.st442,.st443{fill-rule:evenodd;clip-rule:evenodd}.st439{fill:#cbc7bb}.st440{fill:#ccc6b8}.st441{fill:#a49887}.st442{fill:#d2d0c5}.st443{fill:#796f5e}.st444{fill:#423a31}.st444,.st445,.st446,.st447,.st448,.st449{fill-rule:evenodd;clip-rule:evenodd}.st445{fill:#9d9380}.st446{fill:#938574}.st447{fill:#b7b3a6}.st448{fill:#91928c}.st449{fill:#b4b7ad}.st450{fill:#78736e}.st450,.st451,.st452,.st453,.st454,.st455{fill-rule:evenodd;clip-rule:evenodd}.st451{fill:#9b9b8d}.st452{fill:#9e9e90}.st453{fill:#979385}.st454{fill:#9e9b92}.st455{fill:#d7dadb}.st456{fill:#97938b}.st456,.st457,.st458,.st459,.st460,.st461{fill-rule:evenodd;clip-rule:evenodd}.st457{fill:#9e9582}.st458{fill:#98907d}.st459{fill:#9f9784}.st460{fill:#868074}.st461{fill:#a8a597}.st462{fill:#beb8a7}.st462,.st463,.st464,.st465,.st466,.st467{fill-rule:evenodd;clip-rule:evenodd}.st463{fill:#bab4a6}.st464{fill:#aca597}.st465{fill:#b4ad9b}.st466{fill:#d5d9d4}.st467{fill:#b2ad9b}.st468{fill:#807d6e}.st468,.st469,.st470,.st471,.st472,.st473{fill-rule:evenodd;clip-rule:evenodd}.st469{fill:#d1d1c8}.st470{fill:#a7a295}.st471{fill:#9b927e}.st472{fill:#928a7d}.st473{fill:#b2ac98}.st474{fill:#4a4742}.st474,.st475,.st476,.st477,.st478,.st479{fill-rule:evenodd;clip-rule:evenodd}.st475{fill:#c7c5bb}.st476{fill:#8d7e6b}.st477{fill:#7d6f5d}.st478{fill:#c7c5bd}.st479{fill:#8b826e}.st480{fill:#231f20}.st481{font-family:&quot;OpenSans-Bold&quot;}.st482{font-size:10.0525px}.st483{letter-spacing:1}.st484{font-size:3.7821px}.st485{letter-spacing:3}.st486{fill:none;stroke:#231f20;stroke-miterlimit:10}
  </style>
</svg>
